<?xml version="1.0" encoding="UTF-8"?><svg id="Layer_2" xmlns="http://www.w3.org/2000/svg" viewBox="0 0 243.7 260.88"><defs><style>.cls-1{fill:#fff;}</style></defs><g id="Layer_1-2"><polygon class="cls-1" points="153.44 212.87 208.89 167.33 214.86 167.33 220.37 139.43 203.97 139.43 55.47 259.48 97.23 259.48 121.88 239.14 200.67 239.14 205.86 212.87 153.44 212.87"/><path class="cls-1" d="M155.81,0H52.04c-15.7,0-29.19,11.16-32.12,26.59l-.24,1.25H150.4L155.81,0Z"/><path class="cls-1" d="M235.94,140.88c-.65-.37-1.36-.73-2.09-1.05-6.69-3.03-17.28-4.16-41.06-4.36-2.72-.03-5.62-.03-8.7-.03s-6.27,0-9.25,.03H34.77l9.04-53.55h90.59l5.07-26.06H14.36L.53,128.49c-3.48,18.35,10.59,35.34,29.25,35.34H203.4c3.3,0,6.34,2.17,7.05,5.39,.36,1.62,.38,3.63-.3,6.06h31.1l.6-3.08c.94-4.84,1.49-8.87,1.72-12.3v-.02c.79-11.55-2.22-15.94-7.63-19Z"/><polyline class="cls-1" points="241.25 175.27 225.11 260.88 192.52 260.88 210.15 175.27"/></g></svg>